# xmcd
#
# Track frame offsets:
#	150
#	1432
#	16366
#	22903
#	28643
#	48034
#	90516
#	91707
#	95491
#	130505
#	179557
#	186685
#	195818
#	218851
#	221763
#
# Disc length: 2969 seconds
# Revision: 0
# Processed by: cddbd v1.5.2PL0 Copyright (c) Steve Scherf et al.
# Submitted via: dBpowerAMP V12.0
#
DISCID=ba0b970f
DTITLE=Hale Dwoskin - The Inner Circle Retreat 01 CD 09
DYEAR=2006
DGENRE=Speech
TTITLE0=Intro Music
TTITLE1=Visualization - Intuition
TTITLE2=Graduate Gain
TTITLE3=Love Is Not a Feeling
TTITLE4=Wanting to Control a Relationship
TTITLE5=Release on Your Parents
TTITLE6=Assignments
TTITLE7=The Cleanup Procedure
TTITLE8=Past Memories - Sandcastles
TTITLE9=Attachment to Memories
TTITLE10=Resisting Approval
TTITLE11=Apologizing
TTITLE12=Phobia
TTITLE13=Doubts
TTITLE14=Concluding Music
EXTD=
EXTT0=
EXTT1=
EXTT2=
EXTT3=
EXTT4=
EXTT5=
EXTT6=
EXTT7=
EXTT8=
EXTT9=
EXTT10=
EXTT11=
EXTT12=
EXTT13=
EXTT14=
PLAYORDER=
